<?xml version="1.0" encoding="utf-8"?>
<!-- Generator: Adobe Illustrator 18.1.1, SVG Export Plug-In . SVG Version: 6.00 Build 0)  -->
<svg version="1.0" id="Layer_1" xmlns="http://www.w3.org/2000/svg" xmlns:xlink="http://www.w3.org/1999/xlink" x="0px" y="0px"
	 viewBox="0 0 496.8 194.4" enable-background="new 0 0 496.8 194.4" xml:space="preserve">
<g>
	<g>
		<polygon fill="#FFFFFF" points="214.5,104.5 301.1,104.5 301.1,82.1 246.8,82.1 299.3,24.7 299.3,4.5 217.5,4.5 217.5,26.9 
			265.7,26.9 214.5,83.2 		"/>
		<rect x="308" y="4.5" fill="#FFFFFF" width="26" height="100"/>
		<polygon fill="#FFFFFF" points="342.2,104.5 368.2,104.5 368.2,66 409.4,66 409.4,45.8 368.2,45.8 368.2,25.4 415.8,25.4 
			415.8,4.5 342.2,4.5 		"/>
		<polygon fill="#FFFFFF" points="420.6,104.5 446.7,104.5 446.7,66 487.8,66 487.8,45.8 446.7,45.8 446.7,25.4 494.3,25.4 
			494.3,4.5 420.6,4.5 		"/>
	</g>
	<g>
		<path fill="#FFFFFF" d="M232.8,132.9h8.8c12.7,0,19.7,6.3,19.7,19.3c0,14.3-5.6,19.8-19.7,20.1h-8.8V132.9z M214.2,188.4H245
			c21.7,0,35-12.6,35-36c0-22.1-13.1-35.4-35-35.4h-30.7V188.4z"/>
		<path fill="#FFFFFF" d="M276.1,188.4h19.1l4.5-12.8h24.9l4.4,12.8h19.4l-26.7-71.4h-18.9L276.1,188.4z M312.2,136.7h0.2l7.9,25
			H304L312.2,136.7z"/>
		<polygon fill="#FFFFFF" points="402.4,116.9 383,116.9 369,170 368.8,170 354.8,116.9 335.4,116.9 357.9,188.4 379.3,188.4 		"/>
		<rect x="407.5" y="116.9" fill="#FFFFFF" width="18.6" height="71.4"/>
		<path fill="#FFFFFF" d="M432.2,164.4c0.1,18.3,14.6,25.5,31,25.5c15.7,0,31.1-5.8,31.1-23.9c0-12.9-10.4-17.7-20.7-20.6
			c-10.4-2.9-20.7-3.9-20.7-9.4c0-4.7,5-6.1,9-6.1c5.7,0,11.8,2.1,11.5,8.6H492c-0.1-16.1-14.4-23-28.6-23
			c-13.4,0-29.1,6.1-29.1,21.7c0,13.1,10.7,17.7,20.9,20.6c10.3,2.9,20.5,4.1,20.5,10.4c0,5.3-5.8,7.3-11.4,7.3
			c-7.9,0-13.1-2.7-13.5-11.1H432.2z"/>
	</g>
	<g>
		<path fill="#FFFFFF" d="M188.9,166v22.4h-36.7C167.1,183,180.6,175.8,188.9,166"/>
		<path fill="#FFFFFF" d="M22.1,188.4H2.5v-154h58.1l-56.5,83l102.9,0l8.4-11.1H42.1L58,80.7C70.2,83,82.5,86,94.1,90.5
			c29.8,11.5,67.8,40.6,29.3,69.2c-22.2,16.4-59.2,23.2-86.2,26.6L22.8,188L22.1,188.4z"/>
		<path fill="#FFFFFF" d="M2.5,4.5h186.4v116c-14.2-17-43.1-28-59.5-32.6c-17.6-5-35.7-4.9-53.9-6.5c20.2,1.8,40.3,5.8,59.2,13.1
			c29.8,11.5,67.8,40.6,29.3,69.2c-14.3,10.6-34.9,17.2-54.9,21.5c21.8-7.5,41.1-18.7,46.2-36.1c10.1-34.1-36.5-55.4-61-62.4
			c-10-2.8-25.7-4.9-35.9-6.5l37-55.6l-92.9,0V4.5z"/>
	</g>
</g>
</svg>
